<svg width="493" height="600" viewBox="0 0 493 600" fill="none" xmlns="http://www.w3.org/2000/svg">
<path d="M73 320.05C73 300.574 88.4947 284.787 107.608 284.787H174.721V383.79C174.721 390.282 169.556 395.544 163.185 395.544H73V320.05Z" fill="#DF6951"/>
<g filter="url(#filter0_dddddd_6_67)">
<path d="M343.438 2H149.537C125.948 2 106.825 21.4825 106.825 45.5153V316.121C106.825 340.154 125.948 359.636 149.537 359.636H343.438C367.027 359.636 386.15 340.154 386.15 316.121V45.5153C386.15 21.4825 367.027 2 343.438 2Z" fill="white"/>
</g>
<path d="M212.848 79.5175C212.848 91.6982 222.402 101.573 234.188 101.573H259.189C262.463 101.573 265.117 98.8298 265.117 95.4463V57.2529C265.117 50.4858 259.809 45 253.261 45L218.776 45C215.502 45 212.848 47.7429 212.848 51.1264L212.848 79.5175Z" fill="#FBEBBC"/>
<path d="M261.93 95.6257C260.498 96.16 259.088 96.9661 257.786 97.9913C254.399 100.61 252.331 103.937 253.166 105.421C254.001 106.904 257.424 105.984 260.811 103.365C262.127 102.365 263.314 101.163 264.298 99.8309C264.755 99.1898 264.871 98.4593 264.593 97.9674L263.508 96.0393C263.232 95.5456 262.613 95.3835 261.93 95.6257Z" fill="#D5D6DB"/>
<path d="M253.612 64.4658C252.573 64.8536 251.55 65.4377 250.607 66.1811C248.151 68.0796 246.651 70.4922 247.256 71.5672C247.861 72.6422 250.344 71.9735 252.799 70.0749C253.753 69.3509 254.614 68.4785 255.327 67.5131C255.659 67.0479 255.742 66.5191 255.541 66.1617L254.755 64.7661C254.555 64.4087 254.107 64.2899 253.612 64.4658Z" fill="#D5D6DB"/>
<path d="M240.243 67.479C240.015 67.4864 239.768 67.5858 239.549 67.7553L233.773 72.2351C233.29 72.6091 233.072 73.2226 233.286 73.6058C233.335 73.6933 233.404 73.7642 233.491 73.814L246.709 81.4801L265.969 66.5431L240.243 67.479Z" fill="#029BC5"/>
<path d="M298.891 61.4001L247.698 98.3082L217.789 113.619L202.702 118.567L201.216 116.111L286.491 55.5515C289.032 53.7404 291.821 52.4563 294.575 51.8299C295.781 51.5618 296.964 51.4347 298.097 51.4494C299.101 51.4559 300.045 51.606 300.901 51.8971C301.856 52.2287 303.723 52.0206 304.275 52.8708C304.276 52.869 305.456 56.9599 298.891 61.4001Z" fill="#E1E6E9"/>
<path d="M249.425 96.6123L225.924 133.83C225.627 134.348 225.757 134.862 226.213 134.977C226.493 135.048 226.846 134.953 227.151 134.725L232.839 130.478C233.933 129.661 234.916 128.682 235.727 127.6L280.325 72.7859L249.425 96.6123Z" fill="#029BC5"/>
<path d="M193.772 94.9542C193.41 94.8796 192.968 95.0141 192.585 95.3154L187.772 99.1033C187.117 99.6191 186.821 100.465 187.112 100.992C187.167 101.092 187.242 101.177 187.333 101.241L199.773 110.128L213.941 99.1447L193.772 94.9542Z" fill="#029BC5"/>
<path d="M204.828 113.204L197.458 123.628C197.35 123.778 197.364 123.945 197.489 124C197.579 124.041 197.707 124.013 197.814 123.929L202.2 120.674C202.234 120.648 202.265 120.618 202.292 120.585L212.958 107.174L204.828 113.204Z" fill="#029BC5"/>
<path d="M296.781 52.647C295.595 52.6286 294.355 52.7705 293.091 53.068C291.771 54.9841 290.882 57.0494 290.51 59.0576C290.469 59.4564 290.768 59.695 291.178 59.59C291.305 59.5577 291.434 59.4942 291.551 59.4048L299.721 53.1472C298.823 52.823 297.834 52.6544 296.781 52.647Z" fill="#029BC5"/>
<path d="M279.374 63.9315L284.901 59.4941L289.403 67.7645L283.875 72.2009L279.374 63.9315Z" fill="#D5D6DB"/>
<path d="M276.173 66.8821C275.511 67.4145 275.21 68.2795 275.501 68.8129L275.974 69.6779C276.287 70.1928 277.072 70.1643 277.724 69.6134C278.345 69.0892 278.63 68.2749 278.373 67.7489L277.901 66.8848C277.609 66.3515 276.836 66.3496 276.173 66.8821Z" fill="#3A556A"/>
<path d="M271.507 70.0822C270.844 70.6147 270.543 71.4797 270.835 72.0131L271.307 72.878C271.621 73.393 272.405 73.3644 273.058 72.8136C273.679 72.2894 273.963 71.4751 273.707 70.9491L273.234 70.085C272.942 69.5516 272.169 69.5507 271.507 70.0822Z" fill="#3A556A"/>
<path d="M266.838 73.2861C266.176 73.8195 265.876 74.6826 266.167 75.216L266.64 76.081C266.954 76.5959 267.737 76.5674 268.39 76.0165C269.012 75.4923 269.296 74.678 269.039 74.1529L268.567 73.288C268.275 72.7546 267.501 72.7537 266.838 73.2861Z" fill="#3A556A"/>
<path d="M262.171 76.4854C261.509 77.0178 261.209 77.8819 261.501 78.4153L261.973 79.2793C262.287 79.7952 263.071 79.7666 263.724 79.2158C264.345 78.6916 264.629 77.8764 264.373 77.3513L263.9 76.4863C263.608 75.9529 262.834 75.9529 262.171 76.4854Z" fill="#3A556A"/>
<path d="M257.505 79.6884C256.843 80.2217 256.542 81.0867 256.834 81.6201L257.307 82.486C257.599 83.0203 258.372 83.0203 259.035 82.4879C259.698 81.9545 259.999 81.0904 259.707 80.5561L259.234 79.6911C258.944 79.1568 258.17 79.155 257.507 79.6874L257.505 79.6884Z" fill="#3A556A"/>
<path d="M252.839 82.8876C252.176 83.4219 251.875 84.286 252.167 84.8202L252.64 85.6862C252.932 86.2195 253.706 86.2204 254.369 85.6871C255.032 85.1546 255.332 84.2896 255.041 83.7563L254.568 82.8904C254.277 82.3561 253.503 82.3542 252.84 82.8867L252.839 82.8876Z" fill="#3A556A"/>
<path d="M248.171 86.0906C247.508 86.6239 247.208 87.4889 247.5 88.0223L247.973 88.8882C248.265 89.4216 249.04 89.4206 249.702 88.8873C250.363 88.3548 250.663 87.4917 250.373 86.9583L249.9 86.0933C249.608 85.559 248.835 85.5572 248.171 86.0906Z" fill="#3A556A"/>
<path d="M243.504 89.2907C242.841 89.8241 242.541 90.6891 242.832 91.2225L243.306 92.0884C243.598 92.6217 244.372 92.6208 245.035 92.0875C245.696 91.555 245.996 90.6919 245.706 90.1585L245.233 89.2935C244.941 88.7592 244.167 88.7574 243.504 89.2907Z" fill="#3A556A"/>
<path d="M238.837 92.4919C238.175 93.0253 237.874 93.8903 238.166 94.4236L238.639 95.2895C238.931 95.8229 239.706 95.822 240.368 95.2886C241.029 94.7562 241.329 93.893 241.039 93.3597L240.566 92.4946C240.274 91.9604 239.501 91.9594 238.837 92.4919Z" fill="#3A556A"/>
<path d="M234.169 95.694C233.506 96.2273 233.205 97.0914 233.497 97.6247L233.497 97.6266L233.97 98.4925C234.263 99.0249 235.037 99.024 235.699 98.4907C236.36 97.9582 236.661 97.096 236.371 96.5626L235.897 95.6967C235.606 95.1624 234.832 95.1615 234.169 95.694Z" fill="#3A556A"/>
<path d="M229.503 98.8932C228.84 99.4266 228.539 100.291 228.831 100.825L228.832 100.826L229.305 101.692C229.597 102.224 230.372 102.224 231.034 101.691C231.695 101.158 231.995 100.295 231.705 99.7619L231.232 98.896C230.94 98.3626 230.166 98.3608 229.503 98.8932Z" fill="#3A556A"/>
<defs>
<filter id="filter0_dddddd_6_67" x="0.414879" y="0.27577" width="492.145" height="598.782" filterUnits="userSpaceOnUse" color-interpolation-filters="sRGB">
<feFlood flood-opacity="0" result="BackgroundImageFix"/>
<feColorMatrix in="SourceAlpha" type="matrix" values="0 0 0 0 0 0 0 0 0 0 0 0 0 0 0 0 0 0 127 0" result="hardAlpha"/>
<feOffset dy="2.46319"/>
<feGaussianBlur stdDeviation="2.09371"/>
<feColorMatrix type="matrix" values="0 0 0 0 0 0 0 0 0 0 0 0 0 0 0 0 0 0 0.01 0"/>
<feBlend mode="normal" in2="BackgroundImageFix" result="effect1_dropShadow_6_67"/>
<feColorMatrix in="SourceAlpha" type="matrix" values="0 0 0 0 0 0 0 0 0 0 0 0 0 0 0 0 0 0 127 0" result="hardAlpha"/>
<feOffset dy="10.838"/>
<feGaussianBlur stdDeviation="4.33521"/>
<feColorMatrix type="matrix" values="0 0 0 0 0 0 0 0 0 0 0 0 0 0 0 0 0 0 0.01 0"/>
<feBlend mode="normal" in2="effect1_dropShadow_6_67" result="effect2_dropShadow_6_67"/>
<feColorMatrix in="SourceAlpha" type="matrix" values="0 0 0 0 0 0 0 0 0 0 0 0 0 0 0 0 0 0 127 0" result="hardAlpha"/>
<feOffset dy="26.6024"/>
<feGaussianBlur stdDeviation="8.64579"/>
<feColorMatrix type="matrix" values="0 0 0 0 0 0 0 0 0 0 0 0 0 0 0 0 0 0 0.01 0"/>
<feBlend mode="normal" in2="effect2_dropShadow_6_67" result="effect3_dropShadow_6_67"/>
<feColorMatrix in="SourceAlpha" type="matrix" values="0 0 0 0 0 0 0 0 0 0 0 0 0 0 0 0 0 0 127 0" result="hardAlpha"/>
<feOffset dy="51.2343"/>
<feGaussianBlur stdDeviation="16.9467"/>
<feColorMatrix type="matrix" values="0 0 0 0 0 0 0 0 0 0 0 0 0 0 0 0 0 0 0.0121481 0"/>
<feBlend mode="normal" in2="effect3_dropShadow_6_67" result="effect4_dropShadow_6_67"/>
<feColorMatrix in="SourceAlpha" type="matrix" values="0 0 0 0 0 0 0 0 0 0 0 0 0 0 0 0 0 0 127 0" result="hardAlpha"/>
<feOffset dy="86.2116"/>
<feGaussianBlur stdDeviation="31.1593"/>
<feColorMatrix type="matrix" values="0 0 0 0 0 0 0 0 0 0 0 0 0 0 0 0 0 0 0.0151852 0"/>
<feBlend mode="normal" in2="effect4_dropShadow_6_67" result="effect5_dropShadow_6_67"/>
<feColorMatrix in="SourceAlpha" type="matrix" values="0 0 0 0 0 0 0 0 0 0 0 0 0 0 0 0 0 0 127 0" result="hardAlpha"/>
<feOffset dy="133.012"/>
<feGaussianBlur stdDeviation="53.2049"/>
<feColorMatrix type="matrix" values="0 0 0 0 0 0 0 0 0 0 0 0 0 0 0 0 0 0 0.02 0"/>
<feBlend mode="normal" in2="effect5_dropShadow_6_67" result="effect6_dropShadow_6_67"/>
<feBlend mode="normal" in="SourceGraphic" in2="effect6_dropShadow_6_67" result="shape"/>
</filter>
</defs>
</svg>
